<svg xmlns="http://www.w3.org/2000/svg" viewBox="0 0 72 72" width="72" height="72" fill="none">
  <defs>
    <linearGradient id="brand-grad" x1="0%" y1="0%" x2="100%" y2="100%">
      <stop offset="0%" stop-color="#f5a623" />
      <stop offset="48%" stop-color="#e67e22" />
      <stop offset="100%" stop-color="#d35400" />
    </linearGradient>
    <filter id="glow" x="-10%" y="-10%" width="120%" height="120%">
      <feDropShadow dx="0" dy="4" stdDeviation="3" flood-color="#e67e22" flood-opacity="0.3"/>
    </filter>
  </defs>
  <!-- Background Shield/Artboard -->
  <rect x="6" y="6" width="60" height="60" rx="16" fill="#fff" stroke="url(#brand-grad)" stroke-width="2.5" filter="url(#glow)"/>

  <!-- Draped Ribbons -->
  <path d="M30 44 L25 55 L32 52 L36 55 L40 52 L47 55 L42 44 Z" fill="url(#brand-grad)" opacity="0.8"/>

  <!-- Jagged Quality Seal Seal Ring -->
  <path d="M36 18
           C39.5 18, 40 20.5, 43 21
           C46 21.5, 47.5 24, 49.5 25.5
           C51.5 27, 51 29.5, 52 32.5
           C53 35.5, 54.5 37.5, 54 40.5
           C53.5 43.5, 51.5 45, 50 47.5
           C48.5 50, 46.5 51.5, 43.5 51.5
           C40.5 51.5, 39.5 53.5, 36 53.5
           C32.5 53.5, 31.5 51.5, 28.5 51.5
           C25.5 51.5, 23.5 50, 22 47.5
           C20.5 45, 18.5 43.5, 18 40.5
           C17.5 37.5, 19 35.5, 20 32.5
           C21 29.5, 20.5 27, 22.5 25.5
           C24.5 24, 26 21.5, 29 21
           C32 20.5, 32.5 18, 36 18 Z" fill="url(#brand-grad)"/>

  <!-- Inner Seal Circle -->
  <circle cx="36" cy="35" r="13" fill="#fff"/>

  <!-- Elegant Checkmark of Guarantee -->
  <path d="M29 34 L34 39 L43 29" stroke="url(#brand-grad)" stroke-width="3.5" stroke-linecap="round" stroke-linejoin="round"/>
</svg>
